<mxfile host="app.diagrams.net" agent="Mozilla/5.0 (Windows NT 10.0; Win64; x64) AppleWebKit/537.36 (KHTML, like Gecko) Chrome/136.0.0.0 Safari/537.36" version="26.2.14" pages="10">
  <diagram name=" Suma de dos números" id="fBaq9u6pU34P0GS9pMe_">
    <mxGraphModel dx="655" dy="354" grid="1" gridSize="10" guides="1" tooltips="1" connect="1" arrows="1" fold="1" page="1" pageScale="1" pageWidth="827" pageHeight="1169" math="0" shadow="0">
      <root>
        <mxCell id="0" />
        <mxCell id="1" parent="0" />
        <mxCell id="7I-EUl6cJdsFKXZcppDB-12" value="" style="edgeStyle=orthogonalEdgeStyle;rounded=0;orthogonalLoop=1;jettySize=auto;html=1;" edge="1" parent="1" source="7I-EUl6cJdsFKXZcppDB-13" target="7I-EUl6cJdsFKXZcppDB-15">
          <mxGeometry relative="1" as="geometry" />
        </mxCell>
        <mxCell id="7I-EUl6cJdsFKXZcppDB-13" value="begin" style="ellipse;whiteSpace=wrap;html=1;" vertex="1" parent="1">
          <mxGeometry x="340" y="10" width="120" height="60" as="geometry" />
        </mxCell>
        <mxCell id="7I-EUl6cJdsFKXZcppDB-14" value="" style="edgeStyle=orthogonalEdgeStyle;rounded=0;orthogonalLoop=1;jettySize=auto;html=1;" edge="1" parent="1" source="7I-EUl6cJdsFKXZcppDB-15" target="7I-EUl6cJdsFKXZcppDB-17">
          <mxGeometry relative="1" as="geometry" />
        </mxCell>
        <mxCell id="7I-EUl6cJdsFKXZcppDB-15" value="numberOne,numberTwo,addition&lt;div&gt;&lt;br&gt;&lt;/div&gt;" style="shape=parallelogram;perimeter=parallelogramPerimeter;whiteSpace=wrap;html=1;fixedSize=1;" vertex="1" parent="1">
          <mxGeometry x="295" y="100" width="210" height="40" as="geometry" />
        </mxCell>
        <mxCell id="7I-EUl6cJdsFKXZcppDB-16" value="" style="edgeStyle=orthogonalEdgeStyle;rounded=0;orthogonalLoop=1;jettySize=auto;html=1;" edge="1" parent="1" source="7I-EUl6cJdsFKXZcppDB-17" target="7I-EUl6cJdsFKXZcppDB-19">
          <mxGeometry relative="1" as="geometry" />
        </mxCell>
        <mxCell id="7I-EUl6cJdsFKXZcppDB-17" value="addition=numberOne + numberTwo" style="whiteSpace=wrap;html=1;" vertex="1" parent="1">
          <mxGeometry x="295" y="170" width="210" height="40" as="geometry" />
        </mxCell>
        <mxCell id="7I-EUl6cJdsFKXZcppDB-18" value="" style="edgeStyle=orthogonalEdgeStyle;rounded=0;orthogonalLoop=1;jettySize=auto;html=1;" edge="1" parent="1" source="7I-EUl6cJdsFKXZcppDB-19" target="7I-EUl6cJdsFKXZcppDB-20">
          <mxGeometry relative="1" as="geometry" />
        </mxCell>
        <mxCell id="7I-EUl6cJdsFKXZcppDB-19" value="addition" style="shape=document;whiteSpace=wrap;html=1;boundedLbl=1;" vertex="1" parent="1">
          <mxGeometry x="340" y="240" width="120" height="50" as="geometry" />
        </mxCell>
        <mxCell id="7I-EUl6cJdsFKXZcppDB-20" value="end" style="ellipse;whiteSpace=wrap;html=1;" vertex="1" parent="1">
          <mxGeometry x="355" y="320" width="90" height="50" as="geometry" />
        </mxCell>
      </root>
    </mxGraphModel>
  </diagram>
  <diagram id="xYrXMite5NDWi6O8-TFG" name="Conversión de grados Celsius a Fahrenheit">
    <mxGraphModel dx="1426" dy="777" grid="1" gridSize="10" guides="1" tooltips="1" connect="1" arrows="1" fold="1" page="1" pageScale="1" pageWidth="827" pageHeight="1169" math="0" shadow="0">
      <root>
        <mxCell id="0" />
        <mxCell id="1" parent="0" />
        <mxCell id="pRYh9WpaD-MsvSFVtMCx-2" style="edgeStyle=orthogonalEdgeStyle;rounded=0;orthogonalLoop=1;jettySize=auto;html=1;" parent="1" source="pRYh9WpaD-MsvSFVtMCx-1" edge="1">
          <mxGeometry relative="1" as="geometry">
            <mxPoint x="410" y="250" as="targetPoint" />
          </mxGeometry>
        </mxCell>
        <mxCell id="pRYh9WpaD-MsvSFVtMCx-1" value="begin" style="ellipse;whiteSpace=wrap;html=1;" parent="1" vertex="1">
          <mxGeometry x="350" y="160" width="120" height="60" as="geometry" />
        </mxCell>
        <mxCell id="pRYh9WpaD-MsvSFVtMCx-5" value="" style="edgeStyle=orthogonalEdgeStyle;rounded=0;orthogonalLoop=1;jettySize=auto;html=1;" parent="1" source="pRYh9WpaD-MsvSFVtMCx-3" target="pRYh9WpaD-MsvSFVtMCx-4" edge="1">
          <mxGeometry relative="1" as="geometry" />
        </mxCell>
        <mxCell id="pRYh9WpaD-MsvSFVtMCx-3" value="celsius" style="shape=parallelogram;perimeter=parallelogramPerimeter;whiteSpace=wrap;html=1;fixedSize=1;" parent="1" vertex="1">
          <mxGeometry x="355" y="250" width="110" height="60" as="geometry" />
        </mxCell>
        <mxCell id="pRYh9WpaD-MsvSFVtMCx-7" value="" style="edgeStyle=orthogonalEdgeStyle;rounded=0;orthogonalLoop=1;jettySize=auto;html=1;" parent="1" source="pRYh9WpaD-MsvSFVtMCx-4" target="pRYh9WpaD-MsvSFVtMCx-6" edge="1">
          <mxGeometry relative="1" as="geometry" />
        </mxCell>
        <mxCell id="pRYh9WpaD-MsvSFVtMCx-4" value="fahrenheit=(celsius * 9 / 5)+32" style="whiteSpace=wrap;html=1;" parent="1" vertex="1">
          <mxGeometry x="320" y="350" width="180" height="60" as="geometry" />
        </mxCell>
        <mxCell id="pRYh9WpaD-MsvSFVtMCx-9" value="" style="edgeStyle=orthogonalEdgeStyle;rounded=0;orthogonalLoop=1;jettySize=auto;html=1;" parent="1" source="pRYh9WpaD-MsvSFVtMCx-6" target="pRYh9WpaD-MsvSFVtMCx-8" edge="1">
          <mxGeometry relative="1" as="geometry" />
        </mxCell>
        <mxCell id="pRYh9WpaD-MsvSFVtMCx-6" value="fahrenheit" style="shape=document;whiteSpace=wrap;html=1;boundedLbl=1;" parent="1" vertex="1">
          <mxGeometry x="350" y="480" width="120" height="60" as="geometry" />
        </mxCell>
        <mxCell id="pRYh9WpaD-MsvSFVtMCx-8" value="end" style="ellipse;whiteSpace=wrap;html=1;" parent="1" vertex="1">
          <mxGeometry x="365" y="557" width="90" height="55" as="geometry" />
        </mxCell>
      </root>
    </mxGraphModel>
  </diagram>
  <diagram id="USMXpFJOMpIDrurCbFAj" name="Área de un triángulo">
    <mxGraphModel dx="786" dy="425" grid="1" gridSize="10" guides="1" tooltips="1" connect="1" arrows="1" fold="1" page="1" pageScale="1" pageWidth="827" pageHeight="1169" math="0" shadow="0">
      <root>
        <mxCell id="0" />
        <mxCell id="1" parent="0" />
        <mxCell id="d7VFEk4l9pjaeYTgsqbh-3" value="" style="edgeStyle=orthogonalEdgeStyle;rounded=0;orthogonalLoop=1;jettySize=auto;html=1;" parent="1" source="d7VFEk4l9pjaeYTgsqbh-1" target="d7VFEk4l9pjaeYTgsqbh-2" edge="1">
          <mxGeometry relative="1" as="geometry" />
        </mxCell>
        <mxCell id="d7VFEk4l9pjaeYTgsqbh-1" value="begin" style="ellipse;whiteSpace=wrap;html=1;" parent="1" vertex="1">
          <mxGeometry x="360" y="110" width="110" height="50" as="geometry" />
        </mxCell>
        <mxCell id="d7VFEk4l9pjaeYTgsqbh-5" value="" style="edgeStyle=orthogonalEdgeStyle;rounded=0;orthogonalLoop=1;jettySize=auto;html=1;" parent="1" source="d7VFEk4l9pjaeYTgsqbh-2" target="d7VFEk4l9pjaeYTgsqbh-4" edge="1">
          <mxGeometry relative="1" as="geometry" />
        </mxCell>
        <mxCell id="d7VFEk4l9pjaeYTgsqbh-2" value="base,heigth,area" style="shape=parallelogram;perimeter=parallelogramPerimeter;whiteSpace=wrap;html=1;fixedSize=1;" parent="1" vertex="1">
          <mxGeometry x="340" y="190" width="150" height="40" as="geometry" />
        </mxCell>
        <mxCell id="d7VFEk4l9pjaeYTgsqbh-7" value="" style="edgeStyle=orthogonalEdgeStyle;rounded=0;orthogonalLoop=1;jettySize=auto;html=1;" parent="1" source="d7VFEk4l9pjaeYTgsqbh-4" target="d7VFEk4l9pjaeYTgsqbh-6" edge="1">
          <mxGeometry relative="1" as="geometry" />
        </mxCell>
        <mxCell id="d7VFEk4l9pjaeYTgsqbh-4" value="area=(base * heigth) /2" style="whiteSpace=wrap;html=1;" parent="1" vertex="1">
          <mxGeometry x="347.5" y="270" width="135" height="40" as="geometry" />
        </mxCell>
        <mxCell id="d7VFEk4l9pjaeYTgsqbh-9" value="" style="edgeStyle=orthogonalEdgeStyle;rounded=0;orthogonalLoop=1;jettySize=auto;html=1;" parent="1" source="d7VFEk4l9pjaeYTgsqbh-6" target="d7VFEk4l9pjaeYTgsqbh-8" edge="1">
          <mxGeometry relative="1" as="geometry" />
        </mxCell>
        <mxCell id="d7VFEk4l9pjaeYTgsqbh-6" value="area" style="shape=document;whiteSpace=wrap;html=1;boundedLbl=1;size=0.6;" parent="1" vertex="1">
          <mxGeometry x="370" y="340" width="90" height="60" as="geometry" />
        </mxCell>
        <mxCell id="d7VFEk4l9pjaeYTgsqbh-8" value="end" style="ellipse;whiteSpace=wrap;html=1;" parent="1" vertex="1">
          <mxGeometry x="355" y="430" width="120" height="60" as="geometry" />
        </mxCell>
      </root>
    </mxGraphModel>
  </diagram>
  <diagram id="OdjKgdT_U8lVjEdKd45S" name="Promedio de tres números">
    <mxGraphModel dx="786" dy="425" grid="1" gridSize="10" guides="1" tooltips="1" connect="1" arrows="1" fold="1" page="1" pageScale="1" pageWidth="827" pageHeight="1169" math="0" shadow="0">
      <root>
        <mxCell id="0" />
        <mxCell id="1" parent="0" />
        <mxCell id="YePXzC4dtvcdghLRJu6N-3" value="" style="edgeStyle=orthogonalEdgeStyle;rounded=0;orthogonalLoop=1;jettySize=auto;html=1;" parent="1" source="YePXzC4dtvcdghLRJu6N-1" target="YePXzC4dtvcdghLRJu6N-2" edge="1">
          <mxGeometry relative="1" as="geometry" />
        </mxCell>
        <mxCell id="YePXzC4dtvcdghLRJu6N-1" value="begin" style="ellipse;whiteSpace=wrap;html=1;" parent="1" vertex="1">
          <mxGeometry x="350" y="90" width="120" height="50" as="geometry" />
        </mxCell>
        <mxCell id="YePXzC4dtvcdghLRJu6N-5" value="" style="edgeStyle=orthogonalEdgeStyle;rounded=0;orthogonalLoop=1;jettySize=auto;html=1;" parent="1" source="YePXzC4dtvcdghLRJu6N-2" target="YePXzC4dtvcdghLRJu6N-4" edge="1">
          <mxGeometry relative="1" as="geometry" />
        </mxCell>
        <mxCell id="YePXzC4dtvcdghLRJu6N-2" value="numberOne,numberTwo,numberThree,average" style="shape=parallelogram;perimeter=parallelogramPerimeter;whiteSpace=wrap;html=1;fixedSize=1;" parent="1" vertex="1">
          <mxGeometry x="270" y="170" width="280" height="60" as="geometry" />
        </mxCell>
        <mxCell id="YePXzC4dtvcdghLRJu6N-7" value="" style="edgeStyle=orthogonalEdgeStyle;rounded=0;orthogonalLoop=1;jettySize=auto;html=1;" parent="1" source="YePXzC4dtvcdghLRJu6N-4" target="YePXzC4dtvcdghLRJu6N-6" edge="1">
          <mxGeometry relative="1" as="geometry" />
        </mxCell>
        <mxCell id="YePXzC4dtvcdghLRJu6N-4" value="average= (numberOne + numberTwo + numberThree) /3" style="whiteSpace=wrap;html=1;" parent="1" vertex="1">
          <mxGeometry x="290" y="310" width="240" height="60" as="geometry" />
        </mxCell>
        <mxCell id="YePXzC4dtvcdghLRJu6N-9" value="" style="edgeStyle=orthogonalEdgeStyle;rounded=0;orthogonalLoop=1;jettySize=auto;html=1;" parent="1" source="YePXzC4dtvcdghLRJu6N-6" target="YePXzC4dtvcdghLRJu6N-8" edge="1">
          <mxGeometry relative="1" as="geometry" />
        </mxCell>
        <mxCell id="YePXzC4dtvcdghLRJu6N-6" value="average" style="shape=document;whiteSpace=wrap;html=1;boundedLbl=1;" parent="1" vertex="1">
          <mxGeometry x="350" y="440" width="120" height="80" as="geometry" />
        </mxCell>
        <mxCell id="YePXzC4dtvcdghLRJu6N-8" value="end" style="ellipse;whiteSpace=wrap;html=1;" parent="1" vertex="1">
          <mxGeometry x="350" y="550" width="120" height="80" as="geometry" />
        </mxCell>
      </root>
    </mxGraphModel>
  </diagram>
  <diagram id="lhB1U33HMMMI2QY2iPIJ" name="Número par o impar">
    <mxGraphModel dx="786" dy="425" grid="1" gridSize="10" guides="1" tooltips="1" connect="1" arrows="1" fold="1" page="1" pageScale="1" pageWidth="827" pageHeight="1169" math="0" shadow="0">
      <root>
        <mxCell id="0" />
        <mxCell id="1" parent="0" />
        <mxCell id="xWsUy_lOoRuJUSGm9-pa-3" value="" style="edgeStyle=orthogonalEdgeStyle;rounded=0;orthogonalLoop=1;jettySize=auto;html=1;" parent="1" source="xWsUy_lOoRuJUSGm9-pa-1" target="xWsUy_lOoRuJUSGm9-pa-2" edge="1">
          <mxGeometry relative="1" as="geometry" />
        </mxCell>
        <mxCell id="xWsUy_lOoRuJUSGm9-pa-1" value="begin" style="ellipse;whiteSpace=wrap;html=1;" parent="1" vertex="1">
          <mxGeometry x="350" y="190" width="120" height="80" as="geometry" />
        </mxCell>
        <mxCell id="xWsUy_lOoRuJUSGm9-pa-5" value="" style="edgeStyle=orthogonalEdgeStyle;rounded=0;orthogonalLoop=1;jettySize=auto;html=1;" parent="1" source="xWsUy_lOoRuJUSGm9-pa-2" edge="1">
          <mxGeometry relative="1" as="geometry">
            <mxPoint x="410" y="470" as="targetPoint" />
          </mxGeometry>
        </mxCell>
        <mxCell id="xWsUy_lOoRuJUSGm9-pa-2" value="number,pair,odd" style="shape=parallelogram;perimeter=parallelogramPerimeter;whiteSpace=wrap;html=1;fixedSize=1;" parent="1" vertex="1">
          <mxGeometry x="350" y="360" width="120" height="40" as="geometry" />
        </mxCell>
        <mxCell id="xWsUy_lOoRuJUSGm9-pa-10" value="" style="edgeStyle=orthogonalEdgeStyle;rounded=0;orthogonalLoop=1;jettySize=auto;html=1;" parent="1" source="xWsUy_lOoRuJUSGm9-pa-6" target="xWsUy_lOoRuJUSGm9-pa-9" edge="1">
          <mxGeometry relative="1" as="geometry" />
        </mxCell>
        <mxCell id="U7rBc-UpbLsIyiEhA-KW-1" style="edgeStyle=orthogonalEdgeStyle;rounded=0;orthogonalLoop=1;jettySize=auto;html=1;entryX=0.5;entryY=0;entryDx=0;entryDy=0;" parent="1" source="xWsUy_lOoRuJUSGm9-pa-6" target="xWsUy_lOoRuJUSGm9-pa-7" edge="1">
          <mxGeometry relative="1" as="geometry" />
        </mxCell>
        <mxCell id="xWsUy_lOoRuJUSGm9-pa-6" value="if number % 2=0" style="rhombus;whiteSpace=wrap;html=1;" parent="1" vertex="1">
          <mxGeometry x="340" y="470" width="140" height="80" as="geometry" />
        </mxCell>
        <mxCell id="xWsUy_lOoRuJUSGm9-pa-12" style="edgeStyle=orthogonalEdgeStyle;rounded=0;orthogonalLoop=1;jettySize=auto;html=1;" parent="1" source="xWsUy_lOoRuJUSGm9-pa-7" edge="1">
          <mxGeometry relative="1" as="geometry">
            <mxPoint x="570" y="690" as="targetPoint" />
          </mxGeometry>
        </mxCell>
        <mxCell id="xWsUy_lOoRuJUSGm9-pa-7" value="odd" style="shape=document;whiteSpace=wrap;html=1;boundedLbl=1;" parent="1" vertex="1">
          <mxGeometry x="510" y="585" width="120" height="60" as="geometry" />
        </mxCell>
        <mxCell id="xWsUy_lOoRuJUSGm9-pa-13" style="edgeStyle=orthogonalEdgeStyle;rounded=0;orthogonalLoop=1;jettySize=auto;html=1;" parent="1" source="xWsUy_lOoRuJUSGm9-pa-9" edge="1">
          <mxGeometry relative="1" as="geometry">
            <mxPoint x="410" y="690" as="targetPoint" />
          </mxGeometry>
        </mxCell>
        <mxCell id="xWsUy_lOoRuJUSGm9-pa-9" value="pair" style="shape=document;whiteSpace=wrap;html=1;boundedLbl=1;" parent="1" vertex="1">
          <mxGeometry x="350" y="585" width="120" height="65" as="geometry" />
        </mxCell>
        <mxCell id="xWsUy_lOoRuJUSGm9-pa-11" value="" style="endArrow=none;html=1;rounded=0;" parent="1" edge="1">
          <mxGeometry width="50" height="50" relative="1" as="geometry">
            <mxPoint x="410" y="690" as="sourcePoint" />
            <mxPoint x="570" y="690" as="targetPoint" />
          </mxGeometry>
        </mxCell>
        <mxCell id="U7rBc-UpbLsIyiEhA-KW-3" value="not" style="text;html=1;align=center;verticalAlign=middle;whiteSpace=wrap;rounded=0;" parent="1" vertex="1">
          <mxGeometry x="490" y="490" width="60" height="30" as="geometry" />
        </mxCell>
        <mxCell id="U7rBc-UpbLsIyiEhA-KW-4" value="si" style="text;html=1;align=center;verticalAlign=middle;whiteSpace=wrap;rounded=0;" parent="1" vertex="1">
          <mxGeometry x="360" y="550" width="60" height="30" as="geometry" />
        </mxCell>
        <mxCell id="U7rBc-UpbLsIyiEhA-KW-5" value="" style="endArrow=classic;html=1;rounded=0;" parent="1" edge="1">
          <mxGeometry width="50" height="50" relative="1" as="geometry">
            <mxPoint x="490" y="690" as="sourcePoint" />
            <mxPoint x="490" y="740" as="targetPoint" />
          </mxGeometry>
        </mxCell>
        <mxCell id="U7rBc-UpbLsIyiEhA-KW-6" value="end" style="ellipse;whiteSpace=wrap;html=1;" parent="1" vertex="1">
          <mxGeometry x="430" y="740" width="120" height="50" as="geometry" />
        </mxCell>
      </root>
    </mxGraphModel>
  </diagram>
  <diagram id="YVPedQZiR-qaB8q31NE7" name="Intercambio de valores entre dos variables">
    <mxGraphModel dx="786" dy="425" grid="1" gridSize="10" guides="1" tooltips="1" connect="1" arrows="1" fold="1" page="1" pageScale="1" pageWidth="827" pageHeight="1169" math="0" shadow="0">
      <root>
        <mxCell id="0" />
        <mxCell id="1" parent="0" />
        <mxCell id="xAKEDzdnD9r6W_83XuVd-2" value="" style="edgeStyle=orthogonalEdgeStyle;rounded=0;orthogonalLoop=1;jettySize=auto;html=1;" edge="1" parent="1" source="zVfZRkKFGuOt2gJBBhd_-2" target="xAKEDzdnD9r6W_83XuVd-1">
          <mxGeometry relative="1" as="geometry" />
        </mxCell>
        <mxCell id="zVfZRkKFGuOt2gJBBhd_-2" value="begin" style="ellipse;whiteSpace=wrap;html=1;" parent="1" vertex="1">
          <mxGeometry x="350" y="90" width="120" height="70" as="geometry" />
        </mxCell>
        <mxCell id="xAKEDzdnD9r6W_83XuVd-4" value="" style="edgeStyle=orthogonalEdgeStyle;rounded=0;orthogonalLoop=1;jettySize=auto;html=1;" edge="1" parent="1" source="xAKEDzdnD9r6W_83XuVd-1" target="xAKEDzdnD9r6W_83XuVd-3">
          <mxGeometry relative="1" as="geometry" />
        </mxCell>
        <mxCell id="xAKEDzdnD9r6W_83XuVd-1" value="numberOne,numberTwo" style="shape=parallelogram;perimeter=parallelogramPerimeter;whiteSpace=wrap;html=1;fixedSize=1;" vertex="1" parent="1">
          <mxGeometry x="323.75" y="210" width="172.5" height="60" as="geometry" />
        </mxCell>
        <mxCell id="xAKEDzdnD9r6W_83XuVd-6" value="" style="edgeStyle=orthogonalEdgeStyle;rounded=0;orthogonalLoop=1;jettySize=auto;html=1;" edge="1" parent="1" source="xAKEDzdnD9r6W_83XuVd-3" target="xAKEDzdnD9r6W_83XuVd-5">
          <mxGeometry relative="1" as="geometry" />
        </mxCell>
        <mxCell id="xAKEDzdnD9r6W_83XuVd-3" value="temp = numberOne" style="whiteSpace=wrap;html=1;" vertex="1" parent="1">
          <mxGeometry x="350" y="320" width="120" height="60" as="geometry" />
        </mxCell>
        <mxCell id="xAKEDzdnD9r6W_83XuVd-8" value="" style="edgeStyle=orthogonalEdgeStyle;rounded=0;orthogonalLoop=1;jettySize=auto;html=1;" edge="1" parent="1" source="xAKEDzdnD9r6W_83XuVd-5" target="xAKEDzdnD9r6W_83XuVd-7">
          <mxGeometry relative="1" as="geometry" />
        </mxCell>
        <mxCell id="xAKEDzdnD9r6W_83XuVd-5" value="numberOne = numberTwo" style="whiteSpace=wrap;html=1;" vertex="1" parent="1">
          <mxGeometry x="330" y="420" width="160" height="60" as="geometry" />
        </mxCell>
        <mxCell id="xAKEDzdnD9r6W_83XuVd-10" value="" style="edgeStyle=orthogonalEdgeStyle;rounded=0;orthogonalLoop=1;jettySize=auto;html=1;" edge="1" parent="1" source="xAKEDzdnD9r6W_83XuVd-7" target="xAKEDzdnD9r6W_83XuVd-9">
          <mxGeometry relative="1" as="geometry" />
        </mxCell>
        <mxCell id="xAKEDzdnD9r6W_83XuVd-7" value="numberTwo = temp" style="whiteSpace=wrap;html=1;" vertex="1" parent="1">
          <mxGeometry x="350" y="510" width="120" height="60" as="geometry" />
        </mxCell>
        <mxCell id="xAKEDzdnD9r6W_83XuVd-12" value="" style="edgeStyle=orthogonalEdgeStyle;rounded=0;orthogonalLoop=1;jettySize=auto;html=1;" edge="1" parent="1" source="xAKEDzdnD9r6W_83XuVd-9" target="xAKEDzdnD9r6W_83XuVd-11">
          <mxGeometry relative="1" as="geometry" />
        </mxCell>
        <mxCell id="xAKEDzdnD9r6W_83XuVd-9" value="numberOne,numberTwo" style="shape=document;whiteSpace=wrap;html=1;boundedLbl=1;" vertex="1" parent="1">
          <mxGeometry x="340" y="620" width="140" height="80" as="geometry" />
        </mxCell>
        <mxCell id="xAKEDzdnD9r6W_83XuVd-11" value="end" style="ellipse;whiteSpace=wrap;html=1;" vertex="1" parent="1">
          <mxGeometry x="350" y="730" width="120" height="80" as="geometry" />
        </mxCell>
      </root>
    </mxGraphModel>
  </diagram>
  <diagram id="oryy5YFGDMpbwUYV6LjQ" name="Cálculo de la hipotenusa">
    <mxGraphModel dx="786" dy="425" grid="1" gridSize="10" guides="1" tooltips="1" connect="1" arrows="1" fold="1" page="1" pageScale="1" pageWidth="827" pageHeight="1169" math="0" shadow="0">
      <root>
        <mxCell id="0" />
        <mxCell id="1" parent="0" />
        <mxCell id="aNWq4uMpyV24Q2pJm_iu-3" value="" style="edgeStyle=orthogonalEdgeStyle;rounded=0;orthogonalLoop=1;jettySize=auto;html=1;" edge="1" parent="1" source="aNWq4uMpyV24Q2pJm_iu-1" target="aNWq4uMpyV24Q2pJm_iu-2">
          <mxGeometry relative="1" as="geometry" />
        </mxCell>
        <mxCell id="aNWq4uMpyV24Q2pJm_iu-1" value="begin" style="ellipse;whiteSpace=wrap;html=1;" vertex="1" parent="1">
          <mxGeometry x="350" y="190" width="120" height="80" as="geometry" />
        </mxCell>
        <mxCell id="aNWq4uMpyV24Q2pJm_iu-5" value="" style="edgeStyle=orthogonalEdgeStyle;rounded=0;orthogonalLoop=1;jettySize=auto;html=1;" edge="1" parent="1" source="aNWq4uMpyV24Q2pJm_iu-2" target="aNWq4uMpyV24Q2pJm_iu-4">
          <mxGeometry relative="1" as="geometry" />
        </mxCell>
        <mxCell id="aNWq4uMpyV24Q2pJm_iu-2" value="catetouOne,catetouTwo" style="shape=parallelogram;perimeter=parallelogramPerimeter;whiteSpace=wrap;html=1;fixedSize=1;" vertex="1" parent="1">
          <mxGeometry x="335" y="320" width="150" height="60" as="geometry" />
        </mxCell>
        <mxCell id="aNWq4uMpyV24Q2pJm_iu-7" value="" style="edgeStyle=orthogonalEdgeStyle;rounded=0;orthogonalLoop=1;jettySize=auto;html=1;" edge="1" parent="1" source="aNWq4uMpyV24Q2pJm_iu-4" target="aNWq4uMpyV24Q2pJm_iu-6">
          <mxGeometry relative="1" as="geometry" />
        </mxCell>
        <mxCell id="aNWq4uMpyV24Q2pJm_iu-4" value="hypotenuse=root(catetouOne^2 + catetou^2&lt;span style=&quot;background-color: transparent; color: light-dark(rgb(0, 0, 0), rgb(255, 255, 255));&quot;&gt;&amp;nbsp;)&lt;/span&gt;" style="whiteSpace=wrap;html=1;" vertex="1" parent="1">
          <mxGeometry x="320" y="450" width="180" height="60" as="geometry" />
        </mxCell>
        <mxCell id="aNWq4uMpyV24Q2pJm_iu-10" value="" style="edgeStyle=orthogonalEdgeStyle;rounded=0;orthogonalLoop=1;jettySize=auto;html=1;" edge="1" parent="1" source="aNWq4uMpyV24Q2pJm_iu-6" target="aNWq4uMpyV24Q2pJm_iu-9">
          <mxGeometry relative="1" as="geometry" />
        </mxCell>
        <mxCell id="aNWq4uMpyV24Q2pJm_iu-6" value="hypotenuse" style="shape=document;whiteSpace=wrap;html=1;boundedLbl=1;" vertex="1" parent="1">
          <mxGeometry x="350" y="560" width="120" height="80" as="geometry" />
        </mxCell>
        <mxCell id="aNWq4uMpyV24Q2pJm_iu-9" value="end" style="ellipse;whiteSpace=wrap;html=1;" vertex="1" parent="1">
          <mxGeometry x="350" y="680" width="120" height="80" as="geometry" />
        </mxCell>
      </root>
    </mxGraphModel>
  </diagram>
  <diagram id="b4saeIpTe4Z1PF28RRei" name="Cálculo del salario con horas extras">
    <mxGraphModel dx="786" dy="425" grid="1" gridSize="10" guides="1" tooltips="1" connect="1" arrows="1" fold="1" page="1" pageScale="1" pageWidth="827" pageHeight="1169" math="0" shadow="0">
      <root>
        <mxCell id="0" />
        <mxCell id="1" parent="0" />
        <mxCell id="Gu2u0NIxqtn7GgBuZV7U-3" value="" style="edgeStyle=orthogonalEdgeStyle;rounded=0;orthogonalLoop=1;jettySize=auto;html=1;" edge="1" parent="1" source="Gu2u0NIxqtn7GgBuZV7U-1" target="Gu2u0NIxqtn7GgBuZV7U-2">
          <mxGeometry relative="1" as="geometry" />
        </mxCell>
        <mxCell id="Gu2u0NIxqtn7GgBuZV7U-1" value="begin" style="ellipse;whiteSpace=wrap;html=1;" vertex="1" parent="1">
          <mxGeometry x="350" y="190" width="120" height="80" as="geometry" />
        </mxCell>
        <mxCell id="Gu2u0NIxqtn7GgBuZV7U-7" value="" style="edgeStyle=orthogonalEdgeStyle;rounded=0;orthogonalLoop=1;jettySize=auto;html=1;" edge="1" parent="1" source="Gu2u0NIxqtn7GgBuZV7U-2" target="Gu2u0NIxqtn7GgBuZV7U-6">
          <mxGeometry relative="1" as="geometry" />
        </mxCell>
        <mxCell id="Gu2u0NIxqtn7GgBuZV7U-2" value="hours,rate" style="shape=parallelogram;perimeter=parallelogramPerimeter;whiteSpace=wrap;html=1;fixedSize=1;" vertex="1" parent="1">
          <mxGeometry x="350" y="360" width="120" height="60" as="geometry" />
        </mxCell>
        <mxCell id="Gu2u0NIxqtn7GgBuZV7U-9" value="" style="edgeStyle=orthogonalEdgeStyle;rounded=0;orthogonalLoop=1;jettySize=auto;html=1;" edge="1" parent="1" source="Gu2u0NIxqtn7GgBuZV7U-6" target="Gu2u0NIxqtn7GgBuZV7U-8">
          <mxGeometry relative="1" as="geometry" />
        </mxCell>
        <mxCell id="Gu2u0NIxqtn7GgBuZV7U-11" value="" style="edgeStyle=orthogonalEdgeStyle;rounded=0;orthogonalLoop=1;jettySize=auto;html=1;" edge="1" parent="1" source="Gu2u0NIxqtn7GgBuZV7U-6" target="Gu2u0NIxqtn7GgBuZV7U-10">
          <mxGeometry relative="1" as="geometry" />
        </mxCell>
        <mxCell id="Gu2u0NIxqtn7GgBuZV7U-6" value="if hours &amp;lt;- 40" style="rhombus;whiteSpace=wrap;html=1;" vertex="1" parent="1">
          <mxGeometry x="340" y="490" width="140" height="80" as="geometry" />
        </mxCell>
        <mxCell id="Gu2u0NIxqtn7GgBuZV7U-14" style="edgeStyle=orthogonalEdgeStyle;rounded=0;orthogonalLoop=1;jettySize=auto;html=1;" edge="1" parent="1" source="Gu2u0NIxqtn7GgBuZV7U-8">
          <mxGeometry relative="1" as="geometry">
            <mxPoint x="410" y="790" as="targetPoint" />
          </mxGeometry>
        </mxCell>
        <mxCell id="Gu2u0NIxqtn7GgBuZV7U-8" value="salary = hours * rate" style="shape=document;whiteSpace=wrap;html=1;boundedLbl=1;" vertex="1" parent="1">
          <mxGeometry x="350" y="650" width="120" height="80" as="geometry" />
        </mxCell>
        <mxCell id="Gu2u0NIxqtn7GgBuZV7U-13" style="edgeStyle=orthogonalEdgeStyle;rounded=0;orthogonalLoop=1;jettySize=auto;html=1;" edge="1" parent="1" source="Gu2u0NIxqtn7GgBuZV7U-10">
          <mxGeometry relative="1" as="geometry">
            <mxPoint x="580" y="790" as="targetPoint" />
          </mxGeometry>
        </mxCell>
        <mxCell id="Gu2u0NIxqtn7GgBuZV7U-10" value="extra=hours-40&lt;div&gt;salary=(40*raate)+(extra*rate*.5)&lt;/div&gt;" style="shape=document;whiteSpace=wrap;html=1;boundedLbl=1;" vertex="1" parent="1">
          <mxGeometry x="520" y="650" width="120" height="80" as="geometry" />
        </mxCell>
        <mxCell id="Gu2u0NIxqtn7GgBuZV7U-12" value="" style="endArrow=none;html=1;rounded=0;" edge="1" parent="1">
          <mxGeometry width="50" height="50" relative="1" as="geometry">
            <mxPoint x="410" y="790" as="sourcePoint" />
            <mxPoint x="580" y="790" as="targetPoint" />
          </mxGeometry>
        </mxCell>
        <mxCell id="Gu2u0NIxqtn7GgBuZV7U-15" value="" style="endArrow=classic;html=1;rounded=0;" edge="1" parent="1">
          <mxGeometry width="50" height="50" relative="1" as="geometry">
            <mxPoint x="490" y="790" as="sourcePoint" />
            <mxPoint x="490" y="840" as="targetPoint" />
          </mxGeometry>
        </mxCell>
        <mxCell id="Gu2u0NIxqtn7GgBuZV7U-16" value="end" style="ellipse;whiteSpace=wrap;html=1;" vertex="1" parent="1">
          <mxGeometry x="430" y="840" width="120" height="80" as="geometry" />
        </mxCell>
      </root>
    </mxGraphModel>
  </diagram>
  <diagram id="9a_V8jXTFOcMT5xhAEZ5" name=" Desglose de una cantidad en billetes">
    <mxGraphModel dx="786" dy="425" grid="1" gridSize="10" guides="1" tooltips="1" connect="1" arrows="1" fold="1" page="1" pageScale="1" pageWidth="827" pageHeight="1169" math="0" shadow="0">
      <root>
        <mxCell id="0" />
        <mxCell id="1" parent="0" />
        <mxCell id="rHlmTdRbV-i7iiCZxc7n-3" value="" style="edgeStyle=orthogonalEdgeStyle;rounded=0;orthogonalLoop=1;jettySize=auto;html=1;" edge="1" parent="1" source="rHlmTdRbV-i7iiCZxc7n-1" target="rHlmTdRbV-i7iiCZxc7n-2">
          <mxGeometry relative="1" as="geometry" />
        </mxCell>
        <mxCell id="rHlmTdRbV-i7iiCZxc7n-1" value="begin" style="ellipse;whiteSpace=wrap;html=1;" vertex="1" parent="1">
          <mxGeometry x="350" y="190" width="120" height="80" as="geometry" />
        </mxCell>
        <mxCell id="rHlmTdRbV-i7iiCZxc7n-5" value="" style="edgeStyle=orthogonalEdgeStyle;rounded=0;orthogonalLoop=1;jettySize=auto;html=1;" edge="1" parent="1" source="rHlmTdRbV-i7iiCZxc7n-2" target="rHlmTdRbV-i7iiCZxc7n-4">
          <mxGeometry relative="1" as="geometry" />
        </mxCell>
        <mxCell id="rHlmTdRbV-i7iiCZxc7n-2" value="amount" style="shape=parallelogram;perimeter=parallelogramPerimeter;whiteSpace=wrap;html=1;fixedSize=1;" vertex="1" parent="1">
          <mxGeometry x="330" y="310" width="160" height="60" as="geometry" />
        </mxCell>
        <mxCell id="rHlmTdRbV-i7iiCZxc7n-7" value="" style="edgeStyle=orthogonalEdgeStyle;rounded=0;orthogonalLoop=1;jettySize=auto;html=1;" edge="1" parent="1" source="rHlmTdRbV-i7iiCZxc7n-4" target="rHlmTdRbV-i7iiCZxc7n-6">
          <mxGeometry relative="1" as="geometry" />
        </mxCell>
        <mxCell id="rHlmTdRbV-i7iiCZxc7n-4" value="&#xa;&lt;span style=&quot;color: rgb(0, 0, 0); font-family: Helvetica; font-size: 12px; font-style: normal; font-variant-ligatures: normal; font-variant-caps: normal; font-weight: 400; letter-spacing: normal; orphans: 2; text-align: center; text-indent: 0px; text-transform: none; widows: 2; word-spacing: 0px; -webkit-text-stroke-width: 0px; white-space: normal; background-color: rgb(236, 236, 236); text-decoration-thickness: initial; text-decoration-style: initial; text-decoration-color: initial; display: inline !important; float: none;&quot;&gt;billis=amount / 100&lt;/span&gt;&lt;div style=&quot;forced-color-adjust: none; color: rgb(0, 0, 0); font-family: Helvetica; font-size: 12px; font-style: normal; font-variant-ligatures: normal; font-variant-caps: normal; font-weight: 400; letter-spacing: normal; orphans: 2; text-align: center; text-indent: 0px; text-transform: none; widows: 2; word-spacing: 0px; -webkit-text-stroke-width: 0px; white-space: normal; background-color: rgb(236, 236, 236); text-decoration-thickness: initial; text-decoration-style: initial; text-decoration-color: initial;&quot;&gt;amount=amount $ 100&lt;/div&gt;&#xa;&#xa;" style="whiteSpace=wrap;html=1;" vertex="1" parent="1">
          <mxGeometry x="350" y="400" width="120" height="60" as="geometry" />
        </mxCell>
        <mxCell id="rHlmTdRbV-i7iiCZxc7n-9" value="" style="edgeStyle=orthogonalEdgeStyle;rounded=0;orthogonalLoop=1;jettySize=auto;html=1;" edge="1" parent="1" source="rHlmTdRbV-i7iiCZxc7n-6" target="rHlmTdRbV-i7iiCZxc7n-8">
          <mxGeometry relative="1" as="geometry" />
        </mxCell>
        <mxCell id="rHlmTdRbV-i7iiCZxc7n-6" value="&lt;br&gt;&lt;span style=&quot;color: rgb(0, 0, 0); font-family: Helvetica; font-size: 12px; font-style: normal; font-variant-ligatures: normal; font-variant-caps: normal; font-weight: 400; letter-spacing: normal; orphans: 2; text-align: center; text-indent: 0px; text-transform: none; widows: 2; word-spacing: 0px; -webkit-text-stroke-width: 0px; white-space: normal; background-color: rgb(236, 236, 236); text-decoration-thickness: initial; text-decoration-style: initial; text-decoration-color: initial; float: none; display: inline !important;&quot;&gt;billis=amount / 20&lt;/span&gt;&lt;div style=&quot;forced-color-adjust: none; color: rgb(0, 0, 0); font-family: Helvetica; font-size: 12px; font-style: normal; font-variant-ligatures: normal; font-variant-caps: normal; font-weight: 400; letter-spacing: normal; orphans: 2; text-align: center; text-indent: 0px; text-transform: none; widows: 2; word-spacing: 0px; -webkit-text-stroke-width: 0px; white-space: normal; background-color: rgb(236, 236, 236); text-decoration-thickness: initial; text-decoration-style: initial; text-decoration-color: initial;&quot;&gt;amount=amount $ 20&lt;/div&gt;&lt;div&gt;&lt;br/&gt;&lt;/div&gt;" style="whiteSpace=wrap;html=1;" vertex="1" parent="1">
          <mxGeometry x="350" y="490" width="120" height="60" as="geometry" />
        </mxCell>
        <mxCell id="rHlmTdRbV-i7iiCZxc7n-11" value="" style="edgeStyle=orthogonalEdgeStyle;rounded=0;orthogonalLoop=1;jettySize=auto;html=1;" edge="1" parent="1" source="rHlmTdRbV-i7iiCZxc7n-8" target="rHlmTdRbV-i7iiCZxc7n-10">
          <mxGeometry relative="1" as="geometry" />
        </mxCell>
        <mxCell id="rHlmTdRbV-i7iiCZxc7n-8" value="&lt;br&gt;&lt;span style=&quot;color: rgb(0, 0, 0); font-family: Helvetica; font-size: 12px; font-style: normal; font-variant-ligatures: normal; font-variant-caps: normal; font-weight: 400; letter-spacing: normal; orphans: 2; text-align: center; text-indent: 0px; text-transform: none; widows: 2; word-spacing: 0px; -webkit-text-stroke-width: 0px; white-space: normal; background-color: rgb(236, 236, 236); text-decoration-thickness: initial; text-decoration-style: initial; text-decoration-color: initial; float: none; display: inline !important;&quot;&gt;billis=amount / 10&lt;/span&gt;&lt;div&gt;&lt;div style=&quot;forced-color-adjust: none; color: rgb(0, 0, 0); font-family: Helvetica; font-size: 12px; font-style: normal; font-variant-ligatures: normal; font-variant-caps: normal; font-weight: 400; letter-spacing: normal; orphans: 2; text-align: center; text-indent: 0px; text-transform: none; widows: 2; word-spacing: 0px; -webkit-text-stroke-width: 0px; white-space: normal; background-color: rgb(236, 236, 236); text-decoration-thickness: initial; text-decoration-style: initial; text-decoration-color: initial;&quot;&gt;amount=amount $ 10&lt;/div&gt;&lt;br&gt;&lt;br&gt;&lt;/div&gt;" style="whiteSpace=wrap;html=1;" vertex="1" parent="1">
          <mxGeometry x="350" y="585" width="120" height="60" as="geometry" />
        </mxCell>
        <mxCell id="rHlmTdRbV-i7iiCZxc7n-13" value="" style="edgeStyle=orthogonalEdgeStyle;rounded=0;orthogonalLoop=1;jettySize=auto;html=1;" edge="1" parent="1" source="rHlmTdRbV-i7iiCZxc7n-10" target="rHlmTdRbV-i7iiCZxc7n-12">
          <mxGeometry relative="1" as="geometry" />
        </mxCell>
        <mxCell id="rHlmTdRbV-i7iiCZxc7n-10" value="&lt;br&gt;&lt;span style=&quot;color: rgb(0, 0, 0); font-family: Helvetica; font-size: 12px; font-style: normal; font-variant-ligatures: normal; font-variant-caps: normal; font-weight: 400; letter-spacing: normal; orphans: 2; text-align: center; text-indent: 0px; text-transform: none; widows: 2; word-spacing: 0px; -webkit-text-stroke-width: 0px; white-space: normal; background-color: rgb(236, 236, 236); text-decoration-thickness: initial; text-decoration-style: initial; text-decoration-color: initial; float: none; display: inline !important;&quot;&gt;billis=amount / 5&lt;/span&gt;&lt;div style=&quot;forced-color-adjust: none; color: rgb(0, 0, 0); font-family: Helvetica; font-size: 12px; font-style: normal; font-variant-ligatures: normal; font-variant-caps: normal; font-weight: 400; letter-spacing: normal; orphans: 2; text-align: center; text-indent: 0px; text-transform: none; widows: 2; word-spacing: 0px; -webkit-text-stroke-width: 0px; white-space: normal; background-color: rgb(236, 236, 236); text-decoration-thickness: initial; text-decoration-style: initial; text-decoration-color: initial;&quot;&gt;amount=amount $ 5&lt;/div&gt;&lt;div&gt;&lt;br/&gt;&lt;/div&gt;" style="whiteSpace=wrap;html=1;" vertex="1" parent="1">
          <mxGeometry x="350" y="680" width="120" height="60" as="geometry" />
        </mxCell>
        <mxCell id="rHlmTdRbV-i7iiCZxc7n-15" value="" style="edgeStyle=orthogonalEdgeStyle;rounded=0;orthogonalLoop=1;jettySize=auto;html=1;" edge="1" parent="1" source="rHlmTdRbV-i7iiCZxc7n-12" target="rHlmTdRbV-i7iiCZxc7n-14">
          <mxGeometry relative="1" as="geometry" />
        </mxCell>
        <mxCell id="rHlmTdRbV-i7iiCZxc7n-12" value="&lt;br&gt;&lt;span style=&quot;color: rgb(0, 0, 0); font-family: Helvetica; font-size: 12px; font-style: normal; font-variant-ligatures: normal; font-variant-caps: normal; font-weight: 400; letter-spacing: normal; orphans: 2; text-align: center; text-indent: 0px; text-transform: none; widows: 2; word-spacing: 0px; -webkit-text-stroke-width: 0px; white-space: normal; background-color: rgb(236, 236, 236); text-decoration-thickness: initial; text-decoration-style: initial; text-decoration-color: initial; float: none; display: inline !important;&quot;&gt;billis=amount&amp;nbsp;&lt;/span&gt;&lt;div&gt;&lt;br&gt;&lt;br&gt;&lt;/div&gt;" style="whiteSpace=wrap;html=1;" vertex="1" parent="1">
          <mxGeometry x="350" y="790" width="120" height="60" as="geometry" />
        </mxCell>
        <mxCell id="rHlmTdRbV-i7iiCZxc7n-17" value="" style="edgeStyle=orthogonalEdgeStyle;rounded=0;orthogonalLoop=1;jettySize=auto;html=1;" edge="1" parent="1" source="rHlmTdRbV-i7iiCZxc7n-14" target="rHlmTdRbV-i7iiCZxc7n-16">
          <mxGeometry relative="1" as="geometry" />
        </mxCell>
        <mxCell id="rHlmTdRbV-i7iiCZxc7n-14" value="bills" style="shape=document;whiteSpace=wrap;html=1;boundedLbl=1;" vertex="1" parent="1">
          <mxGeometry x="350" y="920" width="120" height="80" as="geometry" />
        </mxCell>
        <mxCell id="rHlmTdRbV-i7iiCZxc7n-16" value="end" style="ellipse;whiteSpace=wrap;html=1;" vertex="1" parent="1">
          <mxGeometry x="350" y="1030" width="120" height="80" as="geometry" />
        </mxCell>
      </root>
    </mxGraphModel>
  </diagram>
  <diagram id="CVIZnoxILNFSPrwDvln6" name="Cálculo del número de días vividos">
    <mxGraphModel dx="786" dy="425" grid="1" gridSize="10" guides="1" tooltips="1" connect="1" arrows="1" fold="1" page="1" pageScale="1" pageWidth="827" pageHeight="1169" math="0" shadow="0">
      <root>
        <mxCell id="0" />
        <mxCell id="1" parent="0" />
        <mxCell id="u5W53n-ABHuj6VtnD9KF-3" value="" style="edgeStyle=orthogonalEdgeStyle;rounded=0;orthogonalLoop=1;jettySize=auto;html=1;" edge="1" parent="1" source="u5W53n-ABHuj6VtnD9KF-1" target="u5W53n-ABHuj6VtnD9KF-2">
          <mxGeometry relative="1" as="geometry" />
        </mxCell>
        <mxCell id="u5W53n-ABHuj6VtnD9KF-1" value="begin" style="ellipse;whiteSpace=wrap;html=1;" vertex="1" parent="1">
          <mxGeometry x="350" y="190" width="120" height="80" as="geometry" />
        </mxCell>
        <mxCell id="u5W53n-ABHuj6VtnD9KF-5" value="" style="edgeStyle=orthogonalEdgeStyle;rounded=0;orthogonalLoop=1;jettySize=auto;html=1;" edge="1" parent="1" source="u5W53n-ABHuj6VtnD9KF-2" target="u5W53n-ABHuj6VtnD9KF-4">
          <mxGeometry relative="1" as="geometry" />
        </mxCell>
        <mxCell id="u5W53n-ABHuj6VtnD9KF-2" value="age" style="shape=parallelogram;perimeter=parallelogramPerimeter;whiteSpace=wrap;html=1;fixedSize=1;" vertex="1" parent="1">
          <mxGeometry x="350" y="360" width="120" height="60" as="geometry" />
        </mxCell>
        <mxCell id="u5W53n-ABHuj6VtnD9KF-7" value="" style="edgeStyle=orthogonalEdgeStyle;rounded=0;orthogonalLoop=1;jettySize=auto;html=1;" edge="1" parent="1" source="u5W53n-ABHuj6VtnD9KF-4" target="u5W53n-ABHuj6VtnD9KF-6">
          <mxGeometry relative="1" as="geometry" />
        </mxCell>
        <mxCell id="u5W53n-ABHuj6VtnD9KF-4" value="daysLivied=age* 365" style="whiteSpace=wrap;html=1;" vertex="1" parent="1">
          <mxGeometry x="350" y="500" width="120" height="60" as="geometry" />
        </mxCell>
        <mxCell id="u5W53n-ABHuj6VtnD9KF-9" value="" style="edgeStyle=orthogonalEdgeStyle;rounded=0;orthogonalLoop=1;jettySize=auto;html=1;" edge="1" parent="1" source="u5W53n-ABHuj6VtnD9KF-6" target="u5W53n-ABHuj6VtnD9KF-8">
          <mxGeometry relative="1" as="geometry" />
        </mxCell>
        <mxCell id="u5W53n-ABHuj6VtnD9KF-6" value="daysLivied" style="shape=document;whiteSpace=wrap;html=1;boundedLbl=1;" vertex="1" parent="1">
          <mxGeometry x="350" y="630" width="120" height="80" as="geometry" />
        </mxCell>
        <mxCell id="u5W53n-ABHuj6VtnD9KF-8" value="end" style="ellipse;whiteSpace=wrap;html=1;" vertex="1" parent="1">
          <mxGeometry x="350" y="750" width="120" height="80" as="geometry" />
        </mxCell>
      </root>
    </mxGraphModel>
  </diagram>
</mxfile>
